<svg width="130" height="130" viewBox="0 0 130 130" fill="none" xmlns="http://www.w3.org/2000/svg">
<g clip-path="url(#clip0_278_204)">
<path d="M64.9825 0C29.1071 0 0 29.1071 0 64.9825C0 100.858 29.1071 129.965 64.9825 129.965C100.858 129.965 129.965 100.858 129.965 64.9825C129.965 29.1071 100.893 0 64.9825 0ZM78.4839 78.4138H51.481V52.4278H78.4839V78.4138Z" fill="#C91A2C"/>
<path d="M64.9831 11.0117C35.3149 11.0117 11.2227 35.0689 11.2227 64.7722C11.2227 94.4754 35.2798 118.533 64.9831 118.533C94.6864 118.533 118.744 94.4754 118.744 64.7722C118.744 35.0689 94.6864 11.0117 64.9831 11.0117ZM78.4846 78.4139H51.4816V52.428H78.4846V78.4139Z" fill="#E51A2F"/>
<path d="M78.3783 52.498H51.5156V78.3788H78.3783V52.498Z" stroke="#C91A2C" stroke-width="5" stroke-miterlimit="10"/>
</g>
<path d="M88.1721 26.2529L81.9203 31.6992L80.6699 31.1086L80.9332 22.8408L82.3151 23.497L82.0519 29.7963L86.856 25.5968L88.1721 26.2529Z" fill="white"/>
<path d="M90.6735 34.2581L86.9224 31.6334C86.725 32.0271 86.725 32.4208 86.8566 32.8145C86.9882 33.2082 87.2515 33.5363 87.6463 33.8644C88.1728 34.2581 88.6993 34.3893 89.2915 34.2581L89.4231 35.3736C89.0283 35.5048 88.6334 35.5048 88.2386 35.3736C87.8437 35.2424 87.3831 35.1111 86.9882 34.783C86.4617 34.3893 86.0669 33.9956 85.8037 33.5363C85.5404 33.077 85.4746 32.552 85.4746 32.0271C85.5404 31.5022 85.7378 31.0428 86.0669 30.5179C86.3959 30.0586 86.7908 29.7305 87.2515 29.468C87.7121 29.2712 88.2386 29.1399 88.7651 29.2055C89.2915 29.2712 89.7522 29.468 90.2129 29.7961C90.6735 30.1242 91.0026 30.5179 91.2658 30.9772C91.4632 31.4365 91.5948 31.8959 91.529 32.4208C91.4632 32.9457 91.2658 33.4051 90.9368 33.93C90.8709 34.0612 90.7393 34.1269 90.6735 34.2581ZM88.5018 30.3867C88.107 30.4523 87.7779 30.5835 87.4489 30.9116L90.1471 32.8145C90.3445 32.4208 90.4103 32.0271 90.2787 31.699C90.147 31.3709 89.9496 30.9772 89.6206 30.7147C89.2257 30.4523 88.8967 30.3867 88.5018 30.3867Z" fill="white"/>
<path d="M96.4643 35.1111L95.543 36.0297C95.4772 35.9641 95.4114 35.8329 95.3456 35.7672C94.9507 35.3735 94.5558 35.2423 94.0952 35.2423C93.6345 35.2423 93.2397 35.5048 92.8448 35.8985L90.9364 37.9326L89.9492 37.014L93.9636 32.8145L94.8849 33.7331L94.2926 34.3237C95.0165 34.1924 95.7404 34.4549 96.4643 35.1111Z" fill="white"/>
<path d="M104.164 47.1189C104.032 47.7094 103.572 48.2344 102.848 48.6281L99.9521 50.3341L99.2282 49.153L101.926 47.5782C102.387 47.3157 102.65 47.0532 102.716 46.7252C102.848 46.3971 102.782 46.069 102.584 45.6753C102.321 45.2816 102.058 45.0191 101.663 44.9535C101.268 44.8879 100.808 44.9535 100.347 45.2816L97.7804 46.7908L97.0565 45.6097L99.7546 44.0348C100.215 43.7724 100.479 43.5099 100.544 43.1818C100.676 42.8537 100.61 42.5256 100.413 42.1319C100.149 41.7382 99.8862 41.4758 99.4914 41.4101C99.0965 41.3445 98.6359 41.4101 98.1752 41.7382L95.6087 43.2474L94.8848 42.0663L99.8862 39.1135L100.544 40.229L99.8862 40.6227C100.215 40.6883 100.544 40.8196 100.808 41.0164C101.071 41.2133 101.334 41.4758 101.531 41.8695C101.729 42.2632 101.861 42.5913 101.926 42.985C101.926 43.3787 101.861 43.7068 101.729 44.0348C102.124 44.1005 102.453 44.2317 102.782 44.4942C103.111 44.7566 103.374 45.0191 103.637 45.4128C104.23 45.9377 104.361 46.5283 104.164 47.1189Z" fill="white"/>
<path d="M106.534 54.0747C106.271 54.5996 105.744 55.059 104.955 55.2558L101.73 56.2401L101.335 54.9934L101.993 54.7965C101.73 54.7309 101.467 54.534 101.203 54.2716C101.006 54.0091 100.809 53.681 100.677 53.2873C100.545 52.8936 100.48 52.4999 100.545 52.1062C100.611 51.7781 100.743 51.45 100.94 51.1875C101.138 50.9251 101.401 50.7938 101.73 50.6626C102.256 50.5314 102.717 50.597 103.112 50.8595C103.507 51.1219 103.836 51.6469 104.099 52.4343L104.56 53.8779H104.626C105.02 53.7466 105.284 53.5498 105.415 53.2217C105.547 52.8936 105.547 52.5655 105.415 52.1062C105.349 51.7781 105.152 51.5156 104.955 51.2532C104.757 50.9907 104.56 50.7938 104.296 50.597L105.086 49.8096C105.415 50.0064 105.678 50.3345 105.942 50.7282C106.205 51.1219 106.402 51.5156 106.534 51.9749C106.797 52.828 106.797 53.5498 106.534 54.0747ZM102.256 54.1403C102.454 54.3372 102.783 54.4684 103.046 54.4684L103.704 54.2716L103.309 52.9592C103.046 52.2374 102.717 51.9093 102.191 52.0406C101.927 52.1062 101.796 52.2374 101.73 52.4999C101.664 52.7624 101.664 53.0248 101.796 53.3529C101.862 53.681 102.059 53.9435 102.256 54.1403ZM108.903 52.0406L109.364 53.5498L107.389 52.1718L107.06 51.0563L108.903 52.0406Z" fill="white"/>
<path d="M102.189 58.1431C102.255 57.6838 102.321 57.2901 102.518 57.0276L103.637 57.4213C103.506 57.6838 103.44 58.0119 103.374 58.4056C103.308 58.7993 103.308 59.1274 103.374 59.5211C103.506 60.3085 103.769 60.7022 104.164 60.6366C104.361 60.6366 104.493 60.5053 104.558 60.2429C104.624 60.046 104.624 59.7179 104.624 59.2586C104.624 58.7993 104.624 58.4056 104.69 58.0775C104.756 57.7494 104.888 57.4869 105.085 57.2245C105.282 56.962 105.611 56.8308 106.006 56.7651C106.533 56.6995 106.993 56.8308 107.388 57.2245C107.783 57.6182 108.046 58.2087 108.178 58.9961C108.244 59.3898 108.244 59.7835 108.244 60.1772C108.244 60.5709 108.112 60.899 108.046 61.2271L106.928 60.8334C107.125 60.3085 107.191 59.7179 107.125 59.1274C107.059 58.7337 106.993 58.4712 106.796 58.2743C106.664 58.0775 106.467 58.0119 106.27 58.0119C106.072 58.0119 105.94 58.1431 105.875 58.4056C105.809 58.668 105.809 58.9961 105.743 59.4555C105.743 59.9148 105.743 60.3085 105.677 60.6366C105.611 60.9647 105.48 61.2271 105.348 61.4896C105.151 61.7521 104.888 61.8833 104.427 61.9489C103.9 62.0145 103.44 61.8833 103.045 61.424C102.65 61.0303 102.387 60.3741 102.255 59.5867C102.189 59.0617 102.124 58.6024 102.189 58.1431Z" fill="white"/>
<path d="M105.15 75.0722L104.295 77.9594L103.176 77.6313L104.031 74.7441L105.15 75.0722Z" fill="white"/>
<path d="M94.6868 96.2012L98.7012 91.4768C98.5696 91.2143 98.5037 90.8862 98.3721 90.5581L94.7526 94.8233L90.7383 91.4768L91.1989 90.9518L91.528 91.2143L94.7526 87.4085L94.4236 87.146L94.8842 86.6211L98.1089 89.3114C97.9773 88.4584 97.9773 87.6054 98.1089 86.6867C98.3063 86.7523 98.6354 86.7523 98.8328 86.6867C98.5696 88.1303 98.767 89.5083 99.2276 90.8206L100.939 88.7865L101.399 89.1802L99.4909 91.4768C99.6225 91.8049 99.7541 92.0673 99.9515 92.3954L101.597 90.4269L102.057 90.8206L100.215 92.986C100.346 93.2485 100.544 93.4453 100.675 93.7078C101.334 92.8548 101.992 92.0673 102.584 91.2799C102.716 91.3456 102.979 91.4768 103.11 91.5424C101.399 93.5765 99.3593 96.3325 98.5037 97.8417H97.714C97.714 97.8417 97.714 97.7761 97.7798 97.7761L97.8457 97.7105C98.3063 96.8574 99.1618 95.6763 100.017 94.4952C100.017 94.4296 100.017 94.364 100.083 94.2983C99.9515 94.0359 99.7541 93.839 99.6225 93.5765L96.5953 97.1199L96.1346 96.7262L99.2934 92.986C99.1618 92.7235 98.9644 92.3954 98.8328 92.133L95.0159 96.6606L94.6868 96.2012ZM95.2133 87.8678L91.9887 91.6736L92.6467 92.2642L95.8714 88.4584L95.2133 87.8678ZM96.9243 89.3114L96.2662 88.7865L93.0416 92.5923L93.6997 93.1172L96.9243 89.3114ZM94.1604 93.4453L94.7526 93.9703L97.9773 90.1644L97.385 89.6395L94.1604 93.4453Z" fill="white"/>
<path d="M84.4202 100.794L87.5132 98.6939C87.25 98.0377 87.0526 97.3815 87.1842 96.5941C85.6706 96.6597 83.9596 97.5127 81.7879 98.7595C81.7879 98.5626 81.7879 98.2345 81.6562 97.9721C83.8938 96.6597 85.6706 95.9379 87.3158 95.8723C87.6449 94.9537 88.2371 93.9694 89.4217 92.7227C89.5533 92.7883 89.8824 92.9851 90.1456 92.9851C88.961 94.1006 88.3688 95.0849 88.0397 95.8723C88.6978 95.9379 89.2901 96.1348 89.9482 96.5285L89.5533 97.0534C88.961 96.7909 88.4346 96.5941 87.9081 96.5285C87.8423 97.119 87.9081 97.7096 88.1713 98.1689L90.9353 96.266L93.2386 99.6125L90.4088 101.515L90.9353 102.303L94.6206 99.8093L95.0155 100.334L87.0526 105.715L86.6577 105.19L90.2772 102.762L89.7508 101.975L86.7235 104.009L84.4202 100.794ZM85.3416 100.925L85.9996 101.909L88.4346 100.269L88.1055 99.7437C87.9739 99.6125 87.9081 99.4156 87.7765 99.2844L85.3416 100.925ZM86.9868 103.287L89.4217 101.647L88.7636 100.662L86.3287 102.303L86.9868 103.287ZM90.6721 97.3159L88.4346 98.8251C88.5662 99.0219 88.632 99.1532 88.7636 99.35L89.0927 99.8093L91.3302 98.3001L90.6721 97.3159ZM92.3173 99.6781L91.6592 98.6939L89.4217 100.203L90.0798 101.187L92.3173 99.6781Z" fill="white"/>
<path d="M74.2864 106.175L74.1548 106.241C73.6941 106.175 73.6283 106.175 73.5625 106.175C73.5625 106.109 73.6283 106.109 73.6283 106.044C74.0232 102.697 76.8529 100.269 80.0776 98.6289C80.2092 98.8258 80.4066 99.0226 80.6041 99.1538C79.0246 99.8756 77.511 100.86 76.3923 102.041C76.9846 102.303 77.8401 102.566 78.4982 102.697L78.1033 103.288C77.3794 103.157 76.4581 102.894 75.8658 102.632C75.1419 103.485 74.6813 104.403 74.4838 105.453L77.6427 104.403C78.3666 103.485 79.2879 102.5 80.4066 101.582C80.5383 101.713 80.8015 101.91 80.9989 101.975C79.0905 103.419 77.8401 105.059 77.3136 106.306L76.3265 106.437C76.3265 106.372 76.3923 106.306 76.5239 106.241C76.6555 105.978 76.853 105.65 77.0504 105.322L74.2864 106.175ZM76.9846 109.39L76.3923 109.259C76.3923 109.193 76.4581 109.193 76.4581 109.128C77.0504 106.372 79.6169 103.878 82.1177 102.369C82.2493 102.5 82.5125 102.763 82.6441 102.894C81.3938 103.55 80.0776 104.534 79.0905 105.716C79.6169 105.912 80.275 106.044 80.8673 106.175L80.5382 106.7C79.8802 106.634 79.0905 106.437 78.6298 106.241C78.0375 106.962 77.5768 107.75 77.3136 108.537L80.4066 107.487C80.9989 106.7 81.7228 105.847 82.6441 104.994C82.7758 105.125 83.1048 105.322 83.3022 105.322C81.7228 106.634 80.6699 108.078 80.2092 109.193L79.2221 109.325C79.2221 109.259 79.2879 109.193 79.4195 109.128C79.5511 108.865 79.6827 108.603 79.8802 108.34L77.0504 109.259L76.9846 109.39Z" fill="white"/>
<path d="M64.2173 106.24L61.2559 106.043L61.3217 105.321L64.2831 105.518L64.2173 106.24Z" fill="white"/>
<path d="M41.3828 103.616L47.7663 98.3008L49.0167 98.957L48.556 107.225L47.174 106.569L47.5689 100.204L42.6332 104.272L41.3828 103.616Z" fill="white"/>
<path d="M39.0794 95.4792L42.7647 98.1695C42.9621 97.7758 42.9621 97.3821 42.8963 96.9884C42.8305 96.5947 42.5015 96.2666 42.1066 95.9385C41.5802 95.5448 41.0537 95.4135 40.4614 95.4792L40.3956 94.3637C40.7904 94.298 41.1853 94.298 41.5802 94.3637C41.975 94.4293 42.4357 94.6918 42.8305 94.9542C43.357 95.3479 43.7518 95.7416 43.9493 96.2666C44.1467 96.7915 44.2783 97.2508 44.2125 97.7758C44.1467 98.3007 43.9493 98.76 43.6202 99.2194C43.2912 99.6787 42.8963 100.007 42.3699 100.204C41.8434 100.4 41.3827 100.466 40.8563 100.4C40.3298 100.335 39.8691 100.138 39.4085 99.8099C38.9478 99.4818 38.6188 99.0881 38.4213 98.6288C38.2239 98.1695 38.1581 97.6445 38.2239 97.1852C38.2897 96.7259 38.4871 96.201 38.882 95.676C38.882 95.7416 38.9478 95.6104 39.0794 95.4792ZM41.1853 99.4162C41.5802 99.4162 41.9092 99.2194 42.2382 98.8913L39.6059 96.9227C39.4085 97.3165 39.3426 97.6445 39.4085 98.0383C39.4743 98.432 39.7375 98.76 40.0665 99.0225C40.3956 99.3506 40.7904 99.4162 41.1853 99.4162Z" fill="white"/>
<path d="M33.2871 94.4942L34.2084 93.5756C34.2742 93.6412 34.3401 93.7724 34.4059 93.838C34.8007 94.2317 35.1956 94.363 35.5904 94.363C36.0511 94.363 36.4459 94.1661 36.8408 93.7068L38.8151 91.7383L39.8022 92.7225L35.722 96.8564L34.8007 95.9378L35.393 95.3472C34.6691 95.4785 34.011 95.216 33.2871 94.4942Z" fill="white"/>
<path d="M25.8509 82.2903C25.9825 81.6997 26.4432 81.2404 27.2329 80.7811L30.1285 79.1406L30.7866 80.3217L28.0226 81.8309C27.5619 82.0934 27.2987 82.3559 27.1671 82.684C27.0355 83.0121 27.1013 83.3401 27.2987 83.7339C27.4961 84.1276 27.8252 84.39 28.22 84.4556C28.6149 84.5213 29.0756 84.4556 29.5362 84.1932L32.1028 82.7496L32.7609 83.9307L29.9969 85.4399C29.5362 85.7024 29.273 85.9648 29.1414 86.2929C29.0097 86.621 29.0756 86.9491 29.273 87.3428C29.4704 87.7365 29.7995 87.999 30.1943 88.0646C30.5892 88.1302 31.0498 88.0646 31.5105 87.8021L34.077 86.3586L34.7351 87.5397L29.6678 90.3612L29.0097 89.2457L29.6678 88.9176C29.3388 88.852 29.0097 88.7208 28.7465 88.5239C28.4833 88.3271 28.22 87.999 28.0226 87.6709C27.8252 87.2772 27.6936 86.9491 27.6936 86.5554C27.6936 86.1617 27.7594 85.8336 27.9568 85.5055C27.5619 85.4399 27.2329 85.3087 26.9039 85.0462C26.5748 84.7837 26.3116 84.4556 26.0483 84.0619C25.7851 83.537 25.6535 82.8808 25.8509 82.2903Z" fill="white"/>
<path d="M21.2445 77.3029L20.8496 75.7937L22.8239 77.1717L23.1529 78.2872L21.2445 77.3029ZM23.6136 75.3344C23.8768 74.8094 24.4033 74.4157 25.193 74.1533L28.4834 73.2346L28.8125 74.4814L28.1544 74.6782C28.4176 74.7438 28.6809 74.9407 28.8783 75.2031C29.0757 75.4656 29.2732 75.7937 29.4048 76.1874C29.5364 76.5811 29.5364 76.9748 29.5364 77.3685C29.5364 77.7622 29.339 78.0247 29.1415 78.2872C28.9441 78.5496 28.6809 78.6809 28.3518 78.8121C27.8254 78.9433 27.3647 78.8777 26.9698 78.6153C26.575 78.3528 26.2459 77.7622 25.9827 76.9748L25.5879 75.5312H25.522C25.1272 75.6625 24.864 75.8593 24.7323 76.1218C24.6007 76.3843 24.6007 76.778 24.7323 77.2373C24.7981 77.5654 24.9298 77.8278 25.1272 78.0903C25.3246 78.3528 25.522 78.5496 25.7853 78.7465L24.9956 79.5339C24.6665 79.337 24.4033 79.009 24.2059 78.6153C23.9426 78.2215 23.811 77.8278 23.6794 77.3685C23.3504 76.5155 23.3504 75.8593 23.6136 75.3344ZM27.8912 75.3344C27.6937 75.1375 27.4305 75.0063 27.1015 75.0063L26.4434 75.2031L26.8382 76.5155C27.0357 77.2373 27.4305 77.5654 27.8912 77.4341C28.1544 77.3685 28.286 77.2373 28.3518 76.9748C28.4176 76.778 28.4176 76.4499 28.3518 76.1218C28.286 75.8593 28.1544 75.5968 27.8912 75.3344Z" fill="white"/>
<path d="M28.0888 71.3973C28.0229 71.8567 27.8913 72.2504 27.7597 72.5128L26.641 72.1191C26.7726 71.8567 26.9042 71.5286 26.97 71.1349C27.0358 70.7412 27.0358 70.4131 26.97 70.0194C26.8384 69.232 26.5751 68.8383 26.1803 68.9039C25.9829 68.9039 25.8512 69.0351 25.7854 69.232C25.7196 69.4288 25.7196 69.7569 25.6538 70.2162C25.6538 70.6756 25.588 71.0693 25.5222 71.3973C25.4564 71.7254 25.3248 71.9879 25.1274 72.2504C24.9299 72.5128 24.6009 72.6441 24.206 72.7097C23.6796 72.7753 23.2189 72.5785 22.824 72.1848C22.4292 71.7911 22.1659 71.2005 22.1001 70.4131C22.0343 70.0194 22.0343 69.6257 22.1001 69.232C22.1659 68.8383 22.2318 68.5102 22.3634 68.2477L23.4821 68.6414C23.2847 69.1664 23.1531 69.7569 23.2847 70.3475C23.3505 70.7412 23.4163 71.0036 23.5479 71.2005C23.6796 71.3974 23.877 71.463 24.0744 71.463C24.2718 71.463 24.4035 71.3317 24.4693 71.0693C24.5351 70.8068 24.6009 70.4787 24.6009 70.0194C24.6009 69.5601 24.6667 69.1664 24.7325 68.8383C24.7983 68.5102 24.9299 68.2477 25.1274 68.0509C25.3248 67.854 25.6538 67.6572 26.0487 67.5915C26.5751 67.5259 27.0358 67.7228 27.4307 68.1165C27.8255 68.5102 28.0229 69.1664 28.1546 69.9538C28.1546 70.4787 28.1546 70.938 28.0888 71.3973Z" fill="white"/>
<path d="M25.5215 54.3372L26.4428 51.5156L27.4958 51.8437L26.5744 54.6653L25.5215 54.3372Z" fill="white"/>
<path d="M36.5116 33.4705L32.3656 38.1294C32.4973 38.3918 32.5631 38.7199 32.6289 39.048L36.38 34.8485L40.2627 38.3262L39.802 38.7855L39.473 38.5231L36.1826 42.2633L36.5116 42.5257L36.0509 43.0507L32.8921 40.2947C33.0237 41.1478 33.0237 42.0008 32.8263 42.9194C32.6289 42.8538 32.2998 42.8538 32.1024 42.9194C32.3656 41.4759 32.234 40.0979 31.8392 38.7855L30.0623 40.7541L29.6017 40.3604L31.5759 38.1294C31.4443 37.8013 31.3127 37.5388 31.1811 37.2107L29.47 39.1792L29.0094 38.7855L30.852 36.6858C30.7204 36.4233 30.523 36.1608 30.3914 35.964C29.7333 36.7514 29.0752 37.6044 28.4171 38.3262C28.2855 38.195 28.0881 38.1294 27.8906 38.0637C29.6675 36.0296 31.7734 33.4049 32.6289 31.8301H33.4186C33.4186 31.8301 33.4186 31.8957 33.3528 31.8957L33.287 31.9613C32.7605 32.8143 31.9708 33.9298 31.0495 35.111C31.0495 35.1766 31.0495 35.2422 30.9836 35.3078C31.1153 35.5703 31.3127 35.7671 31.4443 36.0296L34.5373 32.5519L34.998 32.9456L31.7734 36.5545C31.905 36.817 32.0366 37.1451 32.1682 37.4732L36.0509 33.0768L36.5116 33.4705ZM36.9723 36.2921L36.38 35.7671L33.0895 39.5073L33.6818 40.0323L36.9723 36.2921ZM34.0767 40.3604L34.7348 40.8853L38.0252 37.1451L37.3671 36.6202L34.0767 40.3604ZM35.7219 41.8039L39.0123 38.0637L38.3543 37.4732L35.0638 41.2134L35.7219 41.8039Z" fill="white"/>
<path d="M46.8452 29.14L43.6864 31.1742C43.9496 31.8303 44.0813 32.4865 43.9496 33.2739C45.4633 33.2083 47.1743 32.4865 49.346 31.2398C49.346 31.4366 49.346 31.7647 49.4776 32.0272C47.2401 33.2739 45.4633 33.9957 43.818 33.9957C43.489 34.9144 42.8309 35.8986 41.6463 37.0797C41.5147 37.0141 41.1857 36.8173 40.9224 36.7517C42.107 35.6362 42.7651 34.7175 43.0941 33.9301C42.436 33.8645 41.8438 33.602 41.1857 33.2739L41.5805 32.749C42.107 33.0771 42.6993 33.2083 43.2258 33.2739C43.3574 32.6834 43.2258 32.0928 43.0283 31.6335L40.1985 33.4708L37.961 30.0587L40.8566 28.2214L40.3302 27.434L36.6449 29.665L36.25 29.0744L44.2787 23.8906L44.6735 24.4812L40.9882 26.8434L41.5147 27.6308L44.6077 25.6623L46.8452 29.14ZM38.8824 30.0587L39.5404 31.0429L41.8438 29.5337L41.1857 28.5495L38.8824 30.0587ZM40.4618 32.4865L42.7651 31.0429C42.6993 30.8461 42.5677 30.7148 42.436 30.518L42.107 29.9931L39.8037 31.5023L40.4618 32.4865ZM44.3445 26.5809L41.8438 28.1558L42.5019 29.14L45.0026 27.5652L44.3445 26.5809ZM45.9239 29.0088L45.2658 28.0245L42.7651 29.5993L43.0941 30.1243C43.2257 30.2555 43.2916 30.4524 43.4232 30.6492L45.9239 29.0088Z" fill="white"/>
<path d="M54.478 20.675L55.0703 20.8062C55.0703 20.8718 55.0045 20.8718 55.0045 20.9375C54.3464 23.6934 51.714 26.1212 49.1475 27.5648C49.0158 27.4336 48.8184 27.1711 48.621 27.0399C49.8714 26.3837 51.1875 25.3995 52.2405 24.3496C51.7798 24.1527 51.0559 23.9559 50.4636 23.8903L50.7927 23.3653C51.4508 23.4309 52.2405 23.6278 52.7011 23.8246C53.2934 23.1028 53.7541 22.3154 54.0831 21.528L50.9243 22.4467C50.332 23.2341 49.6081 24.0871 48.621 24.8745C48.4894 24.7433 48.1603 24.5464 47.9629 24.4808C49.5423 23.2341 50.6611 21.7905 51.1217 20.675L52.1089 20.6094C52.1089 20.675 52.043 20.7406 51.9114 20.8062C51.7798 21.0687 51.6482 21.3312 51.4508 21.5936L54.4122 20.8062L54.478 20.675ZM57.1103 23.9559L57.242 23.8903C57.7026 23.9559 57.7684 23.9559 57.8342 24.0215C57.8342 24.0871 57.7684 24.0871 57.7684 24.1527C57.3078 27.4992 54.4122 29.8614 51.1875 31.3706C51.0559 31.1738 50.8585 30.9113 50.6611 30.8457C52.2405 30.1239 53.7541 29.2053 54.9386 28.0242C54.3464 27.7617 53.5567 27.4992 52.8328 27.368L53.2276 26.843C53.9515 26.9743 54.8728 27.2367 55.4651 27.5648C56.189 26.7118 56.7155 25.7932 56.9129 24.8089L53.6225 25.6619C52.8986 26.5806 51.9772 27.4992 50.7927 28.4179C50.6611 28.2866 50.3978 28.0898 50.2004 28.0242C52.1747 26.6462 53.425 25.0714 54.0173 23.8246L55.0045 23.759C55.0045 23.8246 54.9386 23.8902 54.807 23.9559C54.6754 24.2183 54.478 24.5464 54.2806 24.8089L57.1103 23.9559Z" fill="white"/>
<path d="M67.1791 24.1523L70.1405 24.4148L70.0747 25.1366L67.1133 24.8741L67.1791 24.1523Z" fill="white"/>
<defs>
<clipPath id="clip0_278_204">
<rect width="130" height="130" fill="white"/>
</clipPath>
</defs>
</svg>
